HIERARCHY
ROOT Hips
{
	OFFSET 0.000000 0.000000 0.000000
	CHANNELS 6 Xposition Yposition Zposition Xrotation Yrotation Zrotation
	JOINT LeftUpLeg_virtual
	{
		OFFSET 0.000000 0.000000 0.000000
		CHANNELS 3 Xrotation Yrotation Zrotation
		JOINT LeftUpLeg
		{
			OFFSET 11.394100 -6.187798 -0.413800
			CHANNELS 3 Xrotation Yrotation Zrotation
			JOINT LeftLeg
			{
				OFFSET 0.430247 -32.302673 3.732800
				CHANNELS 3 Xrotation Yrotation Zrotation
				JOINT LeftFoot
				{
					OFFSET -0.430247 -48.264931 -6.423300
					CHANNELS 3 Xrotation Yrotation Zrotation
					JOINT LeftToeBase
					{
						OFFSET 4.230900 -16.068199 23.438400
						CHANNELS 3 Xrotation Yrotation Zrotation
						JOINT LeftToe_End
						{
							OFFSET 4.510700 0.695400 19.974600
							CHANNELS 3 Xrotation Yrotation Zrotation
							End Site
							{
								OFFSET 0 0 0
							}
						}
					}
				}
			}
		}
	}
	JOINT RightUpLeg_virtual
	{
		OFFSET 0.000000 0.000000 0.000000
		CHANNELS 3 Xrotation Yrotation Zrotation
		JOINT RightUpLeg
		{
			OFFSET -11.333700 -6.187798 -0.413800
			CHANNELS 3 Xrotation Yrotation Zrotation
			JOINT RightLeg
			{
				OFFSET -0.430392 -32.302628 3.733000
				CHANNELS 3 Xrotation Yrotation Zrotation
				JOINT RightFoot
				{
					OFFSET 0.430392 -48.264973 -6.423500
					CHANNELS 3 Xrotation Yrotation Zrotation
					JOINT RightToeBase
					{
						OFFSET -4.230900 -16.068199 23.438400
						CHANNELS 3 Xrotation Yrotation Zrotation
						JOINT RightToe_End
						{
							OFFSET -4.510700 0.695400 19.974600
							CHANNELS 3 Xrotation Yrotation Zrotation
							End Site
							{
								OFFSET 0 0 0
							}
						}
					}
				}
			}
		}
	}
	JOINT Spine_virtual
	{
		OFFSET 0.000000 0.000000 0.000000
		CHANNELS 3 Xrotation Yrotation Zrotation
		JOINT Spine
		{
			OFFSET -0.002400 12.777504 0.315300
			CHANNELS 3 Xrotation Yrotation Zrotation
			JOINT Spine1
			{
				OFFSET -0.002067 5.816869 0.032633
				CHANNELS 3 Xrotation Yrotation Zrotation
				JOINT Spine1_split
				{
					OFFSET -0.002067 5.816869 0.032633
					CHANNELS 3 Xrotation Yrotation Zrotation
					JOINT Spine2
					{
						OFFSET -0.002067 5.816869 0.032633
						CHANNELS 3 Xrotation Yrotation Zrotation
						JOINT Neck_virtual
						{
							OFFSET 0.000000 0.000000 0.000000
							CHANNELS 3 Xrotation Yrotation Zrotation
							JOINT Neck
							{
								OFFSET -0.003700 21.199493 -0.826900
								CHANNELS 3 Xrotation Yrotation Zrotation
								JOINT Head
								{
									OFFSET 0.000000 20.442200 4.834800
									CHANNELS 3 Xrotation Yrotation Zrotation
									JOINT HeadTop_End
									{
										OFFSET 0.000000 34.668396 4.968400
										CHANNELS 3 Xrotation Yrotation Zrotation
										End Site
										{
											OFFSET 0 0 0
										}
									}
								}
							}
						}
						JOINT LeftShoulder_virtual
						{
							OFFSET 0.000000 0.000000 0.000000
							CHANNELS 3 Xrotation Yrotation Zrotation
							JOINT LeftShoulder
							{
								OFFSET 3.288150 8.794197 -1.372250
								CHANNELS 3 Xrotation Yrotation Zrotation
								JOINT LeftShoulder_split
								{
									OFFSET 3.288150 8.794197 -1.372250
									CHANNELS 3 Xrotation Yrotation Zrotation
									JOINT LeftArm
									{
										OFFSET 11.953299 -2.279007 -0.146200
										CHANNELS 3 Xrotation Yrotation Zrotation
										JOINT LeftForeArm
										{
											OFFSET 18.448900 0.000000 0.000000
											CHANNELS 3 Xrotation Yrotation Zrotation
											JOINT LeftHand
											{
												OFFSET 29.527798 0.000000 0.000000
												CHANNELS 3 Xrotation Yrotation Zrotation
												End Site
												{
													OFFSET 0 0 0
												}
											}
										}
									}
								}
							}
						}
						JOINT RightShoulder_virtual
						{
							OFFSET 0.000000 0.000000 0.000000
							CHANNELS 3 Xrotation Yrotation Zrotation
							JOINT RightShoulder
							{
								OFFSET -3.249400 8.794197 -1.372250
								CHANNELS 3 Xrotation Yrotation Zrotation
								JOINT RightShoulder_split
								{
									OFFSET -3.249400 8.794197 -1.372250
									CHANNELS 3 Xrotation Yrotation Zrotation
									JOINT RightArm
									{
										OFFSET -11.953299 -2.279007 -0.146200
										CHANNELS 3 Xrotation Yrotation Zrotation
										JOINT RightForeArm
										{
											OFFSET -18.448900 0.000000 0.000000
											CHANNELS 3 Xrotation Yrotation Zrotation
											JOINT RightHand
											{
												OFFSET -29.527802 0.000000 0.000000
												CHANNELS 3 Xrotation Yrotation Zrotation
												End Site
												{
													OFFSET 0 0 0
												}
											}
										}
									}
								}
							}
						}
					}
				}
			}
		}
	}
}
MOTION
Frames: 11
Frame Time: 0.03333333
-22.259348 83.438744 -8.980097 0.000000 0.000000 0.000000 34.104736 5.897350 -3.950750 -76.871928 -18.456638 18.416907 41.597867 4.828357 -0.689611 8.976406 8.486873 -28.765379 -3.518334 0.205015 0.122293 0.000000 0.000000 0.000000 34.516549 5.249437 -4.141605 -68.914184 -1.388680 -24.097648 49.312064 -0.328574 -0.833219 -14.951422 -5.127444 20.036466 -0.606130 0.275317 0.477325 0.000000 0.000000 0.000000 35.109942 4.015011 -4.890442 10.268965 2.163989 0.180615 9.918662 2.006963 1.019665 0.890204 0.004930 0.371559 0.000000 0.000000 0.000000 8.528814 2.178604 0.870374 -1.275466 -1.581986 -1.540033 -30.491201 -11.396814 4.300629 0.000000 0.000000 0.000000 8.676210 2.173609 0.565612 0.067468 -21.772608 -10.047985 1.751350 0.781302 -2.251519 15.657754 -11.723025 -49.203358 -2.768742 -71.785240 -2.751598 0.000000 0.000000 0.000000 8.684806 2.382335 1.142285 3.554837 25.739073 6.707402 0.707970 2.784905 -0.174032 -5.340974 41.460836 18.922385 -0.853710 20.692978 1.750390 0.000000 0.000000 0.000000 
-21.450951 82.343948 -8.838907 0.000000 0.000000 0.000000 36.715310 6.066069 -3.500046 -82.319086 -17.308801 17.875686 44.060471 3.882410 -0.733441 7.997718 7.082673 -28.647675 -3.704624 0.081970 0.473740 0.000000 0.000000 0.000000 37.198385 5.005786 -3.505166 -72.467078 -0.182246 -25.413061 50.379219 0.528655 -0.881785 -15.958431 -5.263389 20.458947 -1.197184 0.318354 0.421429 0.000000 0.000000 0.000000 37.960778 4.051748 -4.299508 10.495822 2.439621 0.144974 10.275913 2.167908 1.043439 0.844449 -0.004888 0.407958 0.000000 0.000000 0.000000 8.829456 2.346999 0.854423 -1.548265 -1.775718 -1.698379 -32.441011 -12.158186 3.481216 0.000000 0.000000 0.000000 9.038993 2.335496 0.548424 0.081438 -22.418161 -9.690026 1.890449 0.707765 -2.391405 15.392306 -11.411438 -49.020158 -3.639511 -74.129013 -3.663659 0.000000 0.000000 0.000000 8.969687 2.562380 1.196003 3.487049 26.211090 6.927311 0.948607 2.771690 -0.290161 -7.817092 41.476816 15.825014 -1.162427 20.905857 1.875604 0.000000 0.000000 0.000000 
-20.635180 81.187584 -8.581572 0.000000 0.000000 0.000000 39.237654 6.486596 -2.887247 -87.712572 -16.074582 17.380830 46.506847 2.931882 -0.818816 7.001900 5.597054 -28.051309 -3.655566 -0.021719 0.558531 0.000000 0.000000 0.000000 39.739410 5.083917 -2.747579 -75.879761 1.228313 -27.056239 51.982398 1.440424 -0.808259 -17.014817 -5.423769 20.956743 -1.785443 0.316720 0.437396 0.000000 0.000000 0.000000 40.716718 4.331584 -3.554122 10.713198 2.659329 0.087606 10.605858 2.322119 1.047496 0.838111 -0.020738 0.404339 0.000000 0.000000 0.000000 9.127148 2.510021 0.826404 -1.769066 -2.012252 -1.843408 -34.155085 -12.991960 2.617303 0.000000 0.000000 0.000000 9.398374 2.493775 0.538635 0.140090 -23.120945 -9.199121 2.155029 0.535499 -2.581334 15.847232 -12.059578 -48.887424 -4.568401 -76.265155 -4.651030 0.000000 0.000000 0.000000 9.258565 2.728479 1.241118 3.377384 26.472333 7.294536 1.170969 2.735228 -0.352149 -11.210853 41.296044 13.350937 -1.462897 21.200706 1.879640 0.000000 0.000000 0.000000 
-19.825191 79.859550 -8.207537 0.000000 0.000000 0.000000 41.610182 7.175214 -2.112351 -92.842222 -14.874834 16.915290 48.887349 2.014216 -0.949676 5.954340 4.256880 -27.031095 -3.488422 -0.097026 0.415233 0.000000 0.000000 0.000000 42.064697 5.525835 -1.869912 -79.025917 2.919176 -28.991605 54.128699 2.315173 -0.634380 -18.466364 -5.739634 21.280641 -1.934400 0.289584 0.544154 0.000000 0.000000 0.000000 43.277253 4.888506 -2.661452 10.921983 2.837297 -0.019012 10.958163 2.493848 1.046515 0.803449 -0.043434 0.400181 0.000000 0.000000 0.000000 9.491315 2.687409 0.804855 -2.004746 -2.289948 -2.009268 -35.767037 -13.874053 1.670813 0.000000 0.000000 0.000000 9.802317 2.670170 0.552522 0.244205 -23.767870 -8.617694 2.463960 0.385766 -2.741126 16.609970 -13.418891 -48.795169 -5.451058 -77.876164 -5.576663 0.000000 0.000000 0.000000 9.602105 2.896801 1.275935 3.280400 26.599455 7.675567 1.381455 2.648389 -0.329290 -14.821200 40.987781 11.101573 -1.716650 21.857244 1.795392 0.000000 0.000000 0.000000 
-19.099594 78.275894 -7.759138 0.000000 0.000000 0.000000 43.730874 8.151616 -1.213217 -97.535142 -13.816479 16.431137 51.250857 1.099609 -1.088470 4.637710 3.204847 -25.751359 -3.299587 -0.158955 0.183265 0.000000 0.000000 0.000000 44.158734 6.355110 -0.898666 -81.753157 4.934909 -31.091807 56.870443 3.084205 -0.393192 -20.483444 -6.284600 21.287377 -1.603451 0.264329 0.726391 0.000000 0.000000 0.000000 45.570633 5.707996 -1.673611 11.143968 3.000070 -0.191761 11.384288 2.713077 1.055167 0.713734 -0.090421 0.436579 0.000000 0.000000 0.000000 9.981025 2.905847 0.801423 -2.370261 -2.608350 -2.232522 -37.442913 -14.747779 0.612913 0.000000 0.000000 0.000000 10.301412 2.885744 0.599539 0.397245 -24.241943 -7.989920 2.691026 0.308979 -2.803397 17.267244 -15.111522 -48.732700 -6.320515 -78.817678 -6.448149 0.000000 0.000000 0.000000 10.059774 3.092507 1.310657 3.234169 26.711668 7.935846 1.539905 2.569505 -0.174980 -17.912834 40.693219 8.534701 -1.861070 22.795843 1.687427 0.000000 0.000000 0.000000 
-18.481804 76.421570 -7.265234 0.000000 0.000000 0.000000 45.564793 9.307109 -0.266619 -101.655392 -12.975906 15.898674 53.663857 0.121292 -1.180935 3.008330 2.476374 -24.462261 -3.231840 -0.219705 0.030131 0.000000 0.000000 0.000000 46.000709 7.446474 0.094690 -84.001580 7.256908 -33.224420 60.144918 3.788361 -0.144891 -22.895590 -7.026443 21.110306 -1.104627 0.250501 0.926297 0.000000 0.000000 0.000000 47.559598 6.763170 -0.680093 11.372338 3.200148 -0.420197 11.928596 3.004774 1.082825 0.689379 -0.169527 0.463960 0.000000 0.000000 0.000000 10.630052 3.187936 0.829521 -2.935279 -2.951195 -2.521042 -39.311044 -15.604525 -0.564575 0.000000 0.000000 0.000000 10.922220 3.159909 0.679135 0.576420 -24.439954 -7.351362 2.717000 0.308916 -2.795221 17.426318 -16.828290 -48.757978 -7.094872 -79.120344 -7.149600 0.000000 0.000000 0.000000 10.660400 3.344410 1.347995 3.242967 26.954139 8.018127 1.527144 2.477985 0.083339 -20.129676 40.402051 5.360973 -1.872193 23.583581 1.604424 0.000000 0.000000 0.000000 
-17.962019 74.336700 -6.727686 0.000000 0.000000 0.000000 47.127971 10.564444 0.603286 -105.221304 -12.390786 15.322052 56.139254 -0.943268 -1.201657 1.112756 2.073058 -23.467517 -3.344890 -0.272682 0.078572 0.000000 0.000000 0.000000 47.620936 8.665058 1.013522 -85.750908 9.826558 -35.268829 63.754857 4.532503 0.032345 -25.495018 -7.871457 20.998720 -0.678495 0.250088 1.076513 0.000000 0.000000 0.000000 49.228127 7.978770 0.238155 11.589343 3.461747 -0.664400 12.601436 3.360459 1.139153 0.632431 -0.282159 0.557360 0.000000 0.000000 0.000000 11.441090 3.530860 0.897735 -3.719942 -3.309177 -2.849675 -41.454512 -16.415240 -1.818265 0.000000 0.000000 0.000000 11.659157 3.501696 0.786579 0.749416 -24.304388 -6.762445 2.680981 0.327356 -2.720602 17.022812 -18.442561 -48.876328 -7.662818 -78.969752 -7.621806 0.000000 0.000000 0.000000 11.391291 3.659012 1.408320 3.309727 27.396848 7.861065 1.379428 2.471550 0.292455 -21.654743 40.048442 1.668371 -1.797989 23.811856 1.587626 0.000000 0.000000 0.000000 
-17.542271 72.170105 -6.180214 0.000000 0.000000 0.000000 48.443298 11.802857 1.319090 -108.289241 -12.046285 14.757438 58.662261 -2.035083 -1.153312 -0.816863 1.958201 -22.876238 -3.626486 -0.314876 0.330063 0.000000 0.000000 0.000000 49.039720 9.881921 1.756663 -86.967187 12.462604 -37.153296 67.515238 5.318449 0.115020 -28.119465 -8.752580 21.063323 -0.475563 0.250077 1.170160 0.000000 0.000000 0.000000 50.660234 9.284761 0.974496 11.784019 3.786033 -0.881152 13.389572 3.757437 1.226107 0.593139 -0.440046 0.642574 0.000000 0.000000 0.000000 12.369452 3.918199 1.009255 -4.704193 -3.662752 -3.181045 -43.894009 -17.156190 -3.090515 0.000000 0.000000 0.000000 12.490135 3.886598 0.920036 0.906835 -23.887808 -6.225113 2.603793 0.290371 -2.648417 16.199535 -19.901482 -49.144908 -8.199317 -78.756070 -8.071961 0.000000 0.000000 0.000000 12.221000 4.024552 1.504053 3.418846 28.019722 7.494824 1.067447 2.593314 0.420108 -23.067424 39.519942 -2.089499 -1.683098 23.520672 1.645721 0.000000 0.000000 0.000000 
-17.197470 70.069946 -5.625299 0.000000 0.000000 0.000000 49.575917 12.952504 1.774463 -110.958247 -11.907097 14.286360 61.143232 -3.025800 -1.074666 -2.531234 2.152034 -22.662498 -3.922054 -0.349419 0.696903 0.000000 0.000000 0.000000 50.313079 10.964982 2.244330 -87.626450 14.939956 -38.874612 71.117221 6.077369 0.154617 -30.581602 -9.658057 21.323683 -0.561935 0.228303 1.214868 0.000000 0.000000 0.000000 51.913146 10.573972 1.462089 11.921713 4.142414 -1.035040 14.246409 4.151834 1.349210 0.610241 -0.656718 0.681191 0.000000 0.000000 0.000000 13.343569 4.310038 1.166271 -5.796469 -3.984844 -3.455498 -46.592016 -17.791232 -4.307048 0.000000 0.000000 0.000000 13.359252 4.278728 1.078799 1.036487 -23.300309 -5.751827 2.681691 0.103667 -2.590299 15.098326 -21.205383 -49.574961 -8.594467 -78.775154 -8.460223 0.000000 0.000000 0.000000 13.085254 4.400453 1.639983 3.546591 28.688410 6.968609 0.739233 2.878578 0.397542 -25.027159 38.670359 -5.229674 -1.629616 23.338842 1.783603 0.000000 0.000000 0.000000 
-16.915745 68.178001 -5.033005 0.000000 0.000000 0.000000 50.588500 13.942504 1.925926 -113.282430 -11.943526 13.969293 63.366240 -3.822801 -1.005298 -3.951617 2.622236 -22.688119 -4.087349 -0.376627 1.063913 0.000000 0.000000 0.000000 51.474075 11.871624 2.424310 -87.713337 17.046125 -40.399865 74.281838 6.734053 0.227701 -32.841305 -10.577749 21.665712 -0.780408 0.184292 1.247193 0.000000 0.000000 0.000000 53.095271 11.764630 1.646321 11.999991 4.478202 -1.104435 15.123222 4.496155 1.502358 0.588072 -0.912098 0.776157 0.000000 0.000000 0.000000 14.312021 4.658011 1.353695 -6.893964 -4.258865 -3.621473 -49.425742 -18.250494 -5.371040 0.000000 0.000000 0.000000 14.224733 4.631251 1.263579 1.139288 -22.716985 -5.352622 2.791920 -0.197922 -2.530352 14.007178 -22.236623 -50.148393 -9.050047 -79.235153 -9.009504 0.000000 0.000000 0.000000 13.928128 4.738079 1.816589 3.667888 29.211520 6.330120 0.486714 3.251397 0.302871 -27.903749 37.511167 -7.178526 -1.695888 24.170795 1.979604 0.000000 0.000000 0.000000 
-16.711517 66.567665 -4.455841 0.000000 0.000000 0.000000 51.531803 14.711527 1.783056 -115.284605 -12.135741 13.810269 65.228238 -4.393252 -0.948245 -5.122037 3.292365 -22.769839 -4.097101 -0.413850 1.353319 0.000000 0.000000 0.000000 52.559822 12.602292 2.292193 -87.235060 18.612849 -41.720875 76.762830 7.203599 0.423749 -34.906966 -11.509773 21.910697 -1.035061 0.121817 1.307509 0.000000 0.000000 0.000000 54.220268 12.760613 1.527581 12.014803 4.740008 -1.096846 15.966329 4.755392 1.667567 0.596447 -1.152908 0.805708 0.000000 0.000000 0.000000 15.217419 4.925130 1.548125 -7.885705 -4.468528 -3.639603 -52.184810 -18.512903 -6.198615 0.000000 0.000000 0.000000 15.042742 4.898017 1.458375 1.227605 -22.302615 -5.047263 2.912280 -0.534852 -2.473261 12.997637 -22.776401 -50.882423 -9.750624 -80.208045 -9.889704 0.000000 0.000000 0.000000 14.717412 4.993692 2.006095 3.737486 29.413342 5.685409 0.309477 3.524091 0.239877 -31.497533 36.082602 -7.705779 -1.889330 26.693131 2.198156 0.000000 0.000000 0.000000 
